HIERARCHY
ROOT Hips
{
 OFFSET 0.000000 0.000000 0.000000
 CHANNELS 6 Xposition Yposition Zposition Yrotation Xrotation Zrotation
 JOINT Chest
 {
  OFFSET 0.000000 9.585900 0.002600
  CHANNELS 3 Yrotation Xrotation Zrotation
  JOINT Chest2
  {
   OFFSET 0.000000 9.601200 -0.005300
   CHANNELS 3 Yrotation Xrotation Zrotation
   JOINT Chest3
   {
    OFFSET 0.000000 9.561800 0.000000
    CHANNELS 3 Yrotation Xrotation Zrotation
    JOINT Chest4
    {
     OFFSET 0.000000 9.552100 0.000000
     CHANNELS 3 Yrotation Xrotation Zrotation
     JOINT Neck
     {
      OFFSET 0.000000 14.453000 0.000000
      CHANNELS 3 Yrotation Xrotation Zrotation
      JOINT Head
      {
       OFFSET 0.000000 8.936500 -0.011300
       CHANNELS 3 Yrotation Xrotation Zrotation
       End Site
       {
        OFFSET 0.000000 17.073600 -0.006000
       }
      }
     }
     JOINT RightCollar
     {
      OFFSET -2.921100 9.558500 0.000000
      CHANNELS 3 Yrotation Xrotation Zrotation
      JOINT RightShoulder
      {
       OFFSET -13.519700 0.000000 0.000000
       CHANNELS 3 Yrotation Xrotation Zrotation
       JOINT RightElbow
       {
        OFFSET 0.000000 -29.696600 0.000000
        CHANNELS 3 Yrotation Xrotation Zrotation
        JOINT RightWrist
        {
         OFFSET 0.000000 -24.004700 0.000000
         CHANNELS 3 Yrotation Xrotation Zrotation
         End Site
         {
          OFFSET 0.000000 -17.728500 0.000000
         }
        }
       }
      }
     }
     JOINT LeftCollar
     {
      OFFSET 2.921100 9.558500 0.000000
      CHANNELS 3 Yrotation Xrotation Zrotation
      JOINT LeftShoulder
      {
       OFFSET 13.519700 0.000000 0.000000
       CHANNELS 3 Yrotation Xrotation Zrotation
       JOINT LeftElbow
       {
        OFFSET 0.000000 -29.696600 0.000000
        CHANNELS 3 Yrotation Xrotation Zrotation
        JOINT LeftWrist
        {
         OFFSET 0.000000 -24.004700 0.000000
         CHANNELS 3 Yrotation Xrotation Zrotation
         End Site
         {
          OFFSET 0.000000 -17.728500 0.000000
         }
        }
       }
      }
     }
    }
   }
  }
 }
 JOINT RightHip
 {
  OFFSET -7.771700 -0.012900 -0.001300
  CHANNELS 3 Yrotation Xrotation Zrotation
  JOINT RightKnee
  {
   OFFSET 0.000000 -40.869800 0.001200
   CHANNELS 3 Yrotation Xrotation Zrotation
   JOINT RightAnkle
   {
    OFFSET 0.000000 -39.717900 0.002100
    CHANNELS 3 Yrotation Xrotation Zrotation
    JOINT RightToe
    {
     OFFSET 0.000000 -4.965400 11.033500
     CHANNELS 3 Yrotation Xrotation Zrotation
     End Site
     {
      OFFSET 0.000000 -1.423100 5.872300
     }
    }
   }
  }
 }
 JOINT LeftHip
 {
  OFFSET 7.771700 -0.012900 -0.001300
  CHANNELS 3 Yrotation Xrotation Zrotation
  JOINT LeftKnee
  {
   OFFSET 0.000000 -40.869800 0.001200
   CHANNELS 3 Yrotation Xrotation Zrotation
   JOINT LeftAnkle
   {
    OFFSET 0.000000 -39.717900 0.002100
    CHANNELS 3 Yrotation Xrotation Zrotation
    JOINT LeftToe
    {
     OFFSET 0.000000 -4.965400 11.033500
     CHANNELS 3 Yrotation Xrotation Zrotation
     End Site
     {
      OFFSET 0.000000 -1.423100 5.872300
     }
    }
   }
  }
 }
}
MOTION
Frames: 15
Frame Time: 0.008333
0.000000 85.388000 0.000000 0.000000 -5.767877 0.000000 0.000000 11.653817 0.000000 0.000000 -5.885947 0.000000 0.000000 -0.000000 0.000000 0.000000 -0.000000 0.000000 0.000000 12.528835 0.000000 0.000000 0.711642 0.000000 0.000000 -0.000000 0.000000 0.000000 0.000000 -90.000000 0.000000 -2.309062 0.000000 0.000000 2.309062 0.000000 0.000000 -0.000000 0.000000 0.000000 -0.000000 90.000000 0.000000 -2.309062 0.000000 0.000000 2.309062 0.000000 0.000000 8.520406 0.000000 0.000000 1.905762 0.000000 -0.000000 -4.658285 0.000000 0.000000 -0.000000 0.000000 0.000000 8.520406 0.000000 0.000000 1.905762 0.000000 -0.000000 -4.658285 0.000000 0.000000 -0.000000 0.000000
-26.952850 55.870045 35.950091 -167.511945 -31.793179 -11.560493 -4.437854 14.199353 5.794687 -2.426991 8.286153 1.510412 -3.015020 10.430783 1.851877 -2.428220 8.297165 1.514973 -2.716848 19.239684 -3.059284 -2.195113 -5.334727 -2.638041 5.557214 -2.702038 -4.549375 -2.341438 -17.108552 3.807254 59.450060 -38.029552 -42.326755 12.606204 11.453910 -11.316188 -10.513142 -2.441392 -3.645702 -7.054801 -15.456151 0.803907 -57.070517 -34.044322 53.517288 -2.599444 -3.891152 -1.721099 -24.826104 -26.155476 2.505339 80.806392 87.501111 78.328860 2.596747 -28.772306 -2.795347 -1.324558 2.846188 -0.592467 -16.161274 -43.838642 5.808242 173.472278 72.805320 171.247924 0.165763 -23.379197 0.334129 -1.401799 -3.048881 -0.626559
-26.953297 55.870490 35.948908 -167.513651 -31.777928 -11.560767 -4.440651 14.223794 5.804099 -2.434833 8.333048 1.522979 -3.012461 10.407066 1.851014 -2.429712 8.308531 1.519632 -2.810634 19.174960 -3.121919 -2.280922 -5.403463 -2.683689 5.561009 -2.746639 -4.582915 -2.331251 -17.098594 3.812872 59.476699 -38.052889 -42.353442 12.602883 11.459978 -11.333513 -10.509339 -2.449673 -3.614444 -7.032692 -15.508119 0.781571 -57.061041 -34.083673 53.490928 -2.559117 -3.927213 -1.718073 -24.821053 -26.167791 2.513194 80.813243 87.504401 78.340813 2.587816 -28.773576 -2.793812 -1.320051 2.844823 -0.588739 -16.171341 -43.854999 5.816444 173.470951 72.801141 171.245528 0.170007 -23.375435 0.333423 -1.404994 -3.053932 -0.628613
-26.953913 55.871356 35.946969 -167.520165 -31.765224 -11.558752 -4.444438 14.274937 5.817828 -2.434829 8.329616 1.525774 -3.012332 10.409105 1.853941 -2.431468 8.319831 1.524023 -2.853413 19.104271 -3.162727 -2.418884 -5.473468 -2.737816 5.572227 -2.785473 -4.615622 -2.327947 -17.102478 3.817518 59.503343 -38.075240 -42.372089 12.599370 11.460616 -11.358593 -10.498598 -2.490561 -3.603421 -7.006179 -15.486535 0.783216 -57.078833 -34.146874 53.495154 -2.559187 -3.948502 -1.705873 -24.815532 -26.177910 2.521262 80.816960 87.508215 78.346153 2.579548 -28.775270 -2.790690 -1.315611 2.843917 -0.587109 -16.174117 -43.867749 5.823843 173.469163 72.797590 171.243694 0.171557 -23.374905 0.332257 -1.406087 -3.056571 -0.628944
-26.954912 55.872968 35.943774 -167.517477 -31.757792 -11.561454 -4.448244 14.277332 5.821302 -2.439063 8.344991 1.529613 -3.017159 10.432061 1.860211 -2.434462 8.345467 1.531293 -2.978348 19.030704 -3.241009 -2.484701 -5.555839 -2.783280 5.580609 -2.821462 -4.645452 -2.323587 -17.127811 3.821311 59.534277 -38.091618 -42.374924 12.592408 11.469653 -11.407891 -10.488401 -2.528794 -3.594781 -6.983729 -15.463255 0.788898 -57.107229 -34.204693 53.508303 -2.554654 -3.962003 -1.694441 -24.812457 -26.180989 2.526499 80.850158 87.513261 78.380155 2.570709 -28.774303 -2.783867 -1.310450 2.837169 -0.585359 -16.183915 -43.874338 5.826152 173.445385 72.791887 171.223685 0.166609 -23.373476 0.325919 -1.400345 -3.060754 -0.628087
-26.956704 55.873276 35.942399 -167.530294 -31.739673 -11.549809 -4.452759 14.297216 5.823975 -2.432955 8.330880 1.527843 -3.014059 10.422853 1.858698 -2.440468 8.401877 1.546584 -3.108280 18.950770 -3.320899 -2.553650 -5.641429 -2.828884 5.578953 -2.814849 -4.665132 -2.326463 -17.162786 3.818423 59.579529 -38.116870 -42.417240 12.586480 11.461790 -11.428363 -10.479457 -2.584076 -3.594695 -6.972982 -15.430908 0.797678 -57.118409 -34.248610 53.519758 -2.552589 -3.981770 -1.689322 -24.803336 -26.202947 2.532809 80.936052 87.522504 78.463017 2.568476 -28.773080 -2.776540 -1.307643 2.832127 -0.585599 -16.179430 -43.894596 5.828809 173.447833 72.789416 171.225575 0.161760 -23.373194 0.323361 -1.395810 -3.062929 -0.624694
-26.957664 55.872419 35.942864 -167.548623 -31.708931 -11.539240 -4.447793 14.299720 5.831890 -2.433233 8.341124 1.532065 -3.020261 10.486063 1.878055 -2.436583 8.369046 1.542227 -3.214571 18.864416 -3.388589 -2.651826 -5.733255 -2.877195 5.590030 -2.868137 -4.693473 -2.327088 -17.103587 3.816469 59.651293 -38.171926 -42.503610 12.579754 11.463202 -11.453184 -10.471922 -2.643102 -3.595789 -6.969051 -15.411905 0.802022 -57.133625 -34.282143 53.517686 -2.549128 -3.993313 -1.664980 -24.796385 -26.237114 2.552037 81.002378 87.532286 78.523807 2.570142 -28.771121 -2.765964 -1.309627 2.828773 -0.588468 -16.182739 -43.929532 5.842775 173.450985 72.785291 171.227183 0.162347 -23.371279 0.320324 -1.396505 -3.065439 -0.623384
-26.959703 55.872861 35.941100 -167.554027 -31.693854 -11.533859 -4.450404 14.323435 5.836223 -2.440990 8.406742 1.554852 -3.018898 10.467016 1.877897 -2.437162 8.366059 1.543433 -3.321926 18.769624 -3.455104 -2.751466 -5.834185 -2.923967 5.605131 -2.927127 -4.725863 -2.325875 -17.097531 3.814668 59.676046 -38.202816 -42.535271 12.577567 11.458217 -11.476759 -10.464112 -2.691021 -3.592336 -6.963992 -15.439347 0.796203 -57.140308 -34.293704 53.515396 -2.546211 -4.004603 -1.652301 -24.782957 -26.253654 2.554839 81.063495 87.540615 78.589553 2.567788 -28.768027 -2.762042 -1.307052 2.821504 -0.584306 -16.189709 -43.946879 5.847481 173.454662 72.781072 171.227471 0.164244 -23.367539 0.319487 -1.397488 -3.071244 -0.624354
-26.962111 55.873635 35.938674 -167.557564 -31.684945 -11.530243 -4.449173 14.354302 5.848934 -2.448550 8.420781 1.558259 -3.022159 10.484741 1.884143 -2.436193 8.358310 1.542809 -3.430933 18.691855 -3.514085 -2.850752 -5.940535 -2.968531 5.612559 -2.906424 -4.743997 -2.322739 -17.122795 3.807403 59.721493 -38.253403 -42.587259 12.573079 11.455918 -11.516589 -10.461601 -2.675483 -3.579388 -6.957050 -15.429705 0.805501 -57.187839 -34.363399 53.596892 -2.545841 -4.012958 -1.646320 -24.780893 -26.261901 2.555938 81.105687 87.543311 78.629196 2.566477 -28.767175 -2.758873 -1.305192 2.816589 -0.583919 -16.192789 -43.954294 5.847396 173.461962 72.779671 171.235254 0.163522 -23.373766 0.316275 -1.392511 -3.068468 -0.623086
-26.965267 55.873551 35.937302 -167.565642 -31.671375 -11.520338 -4.452872 14.380416 5.853641 -2.449438 8.434157 1.563278 -3.025198 10.502387 1.889840 -2.438794 8.372411 1.547466 -3.533909 18.592633 -3.574318 -2.947314 -6.046155 -3.009744 5.625346 -2.940109 -4.776837 -2.335499 -17.055616 3.814367 59.823142 -38.339824 -42.698656 12.570414 11.457400 -11.561628 -10.444576 -2.701329 -3.577269 -6.962232 -15.416407 0.813174 -57.242599 -34.416782 53.662262 -2.540962 -4.003099 -1.629042 -24.775810 -26.280189 2.555918 81.228429 87.550584 78.749623 2.565799 -28.764714 -2.755762 -1.302671 2.808764 -0.583089 -16.191291 -43.970404 5.845789 173.465421 72.776912 171.236128 0.162487 -23.374831 0.317009 -1.390867 -3.070419 -0.622980
-26.968977 55.873564 35.935611 -167.570435 -31.661345 -11.510862 -4.461135 14.447708 5.866989 -2.444941 8.407489 1.557296 -3.028080 10.518901 1.894792 -2.444962 8.407489 1.557186 -3.628173 18.477633 -3.634238 -3.038658 -6.144877 -3.046571 5.639539 -2.977967 -4.816733 -2.348977 -17.027818 3.823717 59.896619 -38.419900 -42.773342 12.579587 11.463158 -11.599740 -10.420922 -2.756308 -3.578784 -6.972652 -15.398388 0.819437 -57.288897 -34.461218 53.724629 -2.542352 -4.008258 -1.614358 -24.774406 -26.296178 2.554702 81.406711 87.560717 78.921631 2.565567 -28.760110 -2.753679 -1.300367 2.797132 -0.578999 -16.194518 -43.989744 5.837553 173.446783 72.766809 171.213119 0.175675 -23.353889 0.315144 -1.401725 -3.094454 -0.627593
-26.972120 55.872916 35.934924 -167.578290 -31.645411 -11.502700 -4.463284 14.466470 5.871865 -2.447097 8.419039 1.560702 -3.027464 10.519044 1.895978 -2.450285 8.433411 1.563598 -3.716206 18.393986 -3.683301 -3.121840 -6.233541 -3.079289 5.652902 -3.023989 -4.844180 -2.357825 -16.976090 3.831577 59.951342 -38.487873 -42.838154 12.601152 11.475257 -11.616962 -10.403517 -2.779130 -3.579681 -6.978472 -15.378292 0.827155 -57.338184 -34.504640 53.786992 -2.544637 -4.023225 -1.596349 -24.774016 -26.316297 2.558356 81.534334 87.564198 79.045902 2.561122 -28.757817 -2.754349 -1.294756 2.791165 -0.572816 -16.192953 -44.008644 5.836850 173.438436 72.763132 171.204262 0.174080 -23.356088 0.315506 -1.400083 -3.096110 -0.627398
-26.975027 55.871737 35.935098 -167.591761 -31.625101 -11.492207 -4.462504 14.478841 5.875382 -2.448743 8.429505 1.563648 -3.020328 10.489273 1.891873 -2.461224 8.486803 1.574369 -3.792029 18.319075 -3.726079 -3.193430 -6.312915 -3.108032 5.666135 -3.064266 -4.868035 -2.360595 -16.962552 3.836845 59.971139 -38.555028 -42.847155 12.616248 11.492203 -11.657689 -10.389722 -2.797338 -3.580897 -6.973393 -15.355493 0.834240 -57.399810 -34.549664 53.856244 -2.535677 -4.030605 -1.587399 -24.770561 -26.340162 2.564879 81.619651 87.569727 79.129956 2.555861 -28.763331 -2.760454 -1.289036 2.792731 -0.565056 -16.189023 -44.034682 5.833892 173.417816 72.757846 171.187023 0.178324 -23.353484 0.310551 -1.400898 -3.102297 -0.627146
-26.978737 55.871436 35.933807 -167.599476 -31.615686 -11.481604 -4.462523 14.485095 5.871323 -2.449410 8.434627 1.565089 -3.027923 10.524524 1.900856 -2.460901 8.495175 1.574074 -3.854203 18.252402 -3.762556 -3.251875 -6.383737 -3.133086 5.679404 -3.039549 -4.899045 -2.372253 -17.009882 3.855049 60.000133 -38.593244 -42.880705 12.611128 11.488207 -11.683483 -10.380183 -2.816320 -3.580993 -6.964951 -15.346264 0.839836 -57.456165 -34.594146 53.907744 -2.533976 -4.021270 -1.575262 -24.759875 -26.356791 2.560977 81.784974 87.579153 79.297814 2.550173 -28.758929 -2.761382 -1.282209 2.780460 -0.559208 -16.176042 -44.046393 5.820277 173.399242 72.755474 171.173238 0.177442 -23.359240 0.312566 -1.398219 -3.100364 -0.630081
-26.983169 55.871272 35.932217 -167.605749 -31.609204 -11.467281 -4.463679 14.493983 5.861786 -2.450061 8.439714 1.566452 -3.043593 10.610742 1.915861 -2.447414 8.434470 1.566331 -3.904827 18.208312 -3.791327 -3.297105 -6.446007 -3.156297 5.685596 -3.040957 -4.919408 -2.361071 -16.916360 3.865549 60.094702 -38.676737 -43.031827 12.609138 11.486892 -11.706609 -10.375384 -2.830423 -3.581609 -6.961417 -15.361053 0.844092 -57.483042 -34.613328 53.925727 -2.529250 -4.014770 -1.567518 -24.745325 -26.375226 2.555914 82.057097 87.596281 79.568642 2.539579 -28.749137 -2.755221 -1.272088 2.759310 -0.553003 -16.159613 -44.058362 5.798945 173.376003 72.751237 171.155625 0.174785 -23.356733 0.308168 -1.394319 -3.106284 -0.627121
